<mxfile host="app.diagrams.net" modified="2024-05-21T16:49:12.802Z" agent="Mozilla/5.0 (Windows NT 10.0; Win64; x64) AppleWebKit/537.36 (KHTML, like Gecko) Chrome/122.0.0.0 YaBrowser/24.4.0.0 Safari/537.36" etag="tO8B1owk0Zljyd6mPCpM" version="24.4.4" type="device">
  <diagram name="Page-1" id="2a216829-ef6e-dabb-86c1-c78162f3ba2b">
    <mxGraphModel dx="84" dy="547" grid="1" gridSize="10" guides="1" tooltips="1" connect="1" arrows="1" fold="1" page="1" pageScale="1" pageWidth="850" pageHeight="1100" background="none" math="0" shadow="0">
      <root>
        <mxCell id="0" />
        <mxCell id="1" parent="0" />
        <mxCell id="2n2AJG824ThZec9w-o2N-59" value="Подмены shk_substituted_sp" style="swimlane;html=1;startSize=20;fontStyle=0;collapsible=0;horizontal=1;swimlaneLine=1;strokeWidth=2;swimlaneFillColor=#ffffff;whiteSpace=wrap;" vertex="1" parent="1">
          <mxGeometry x="1560" y="130" width="1680" height="540" as="geometry" />
        </mxCell>
        <mxCell id="2n2AJG824ThZec9w-o2N-127" value="Поток возврата" style="swimlane;html=1;startSize=20;fontStyle=0;collapsible=0;horizontal=1;swimlaneLine=1;strokeWidth=2;swimlaneFillColor=#ffffff;whiteSpace=wrap;" vertex="1" parent="2n2AJG824ThZec9w-o2N-59">
          <mxGeometry y="20" width="350" height="520" as="geometry" />
        </mxCell>
        <mxCell id="2n2AJG824ThZec9w-o2N-60" value="&lt;span style=&quot;text-align: left; background-color: rgb(251, 251, 251);&quot;&gt;Возврат приезжает на склад&lt;/span&gt;" style="points=[[0.145,0.145,0],[0.5,0,0],[0.855,0.145,0],[1,0.5,0],[0.855,0.855,0],[0.5,1,0],[0.145,0.855,0],[0,0.5,0]];shape=mxgraph.bpmn.event;html=1;verticalLabelPosition=bottom;labelBackgroundColor=#ffffff;verticalAlign=top;align=center;perimeter=ellipsePerimeter;outlineConnect=0;aspect=fixed;outline=standard;symbol=general;fillColor=#d5e8d4;strokeColor=#82b366;" vertex="1" parent="2n2AJG824ThZec9w-o2N-127">
          <mxGeometry x="70" y="245" width="50" height="50" as="geometry" />
        </mxCell>
        <mxCell id="2n2AJG824ThZec9w-o2N-68" value="" style="edgeStyle=orthogonalEdgeStyle;rounded=0;orthogonalLoop=1;jettySize=auto;html=1;exitX=1;exitY=0.5;exitDx=0;exitDy=0;exitPerimeter=0;entryX=0;entryY=0.5;entryDx=0;entryDy=0;entryPerimeter=0;" edge="1" parent="2n2AJG824ThZec9w-o2N-127" source="2n2AJG824ThZec9w-o2N-60" target="2n2AJG824ThZec9w-o2N-66">
          <mxGeometry relative="1" as="geometry">
            <mxPoint x="80" y="330" as="targetPoint" />
          </mxGeometry>
        </mxCell>
        <mxCell id="2n2AJG824ThZec9w-o2N-66" value="Переложить в возвратную коробку" style="points=[[0.25,0,0],[0.5,0,0],[0.75,0,0],[1,0.25,0],[1,0.5,0],[1,0.75,0],[0.75,1,0],[0.5,1,0],[0.25,1,0],[0,0.75,0],[0,0.5,0],[0,0.25,0]];shape=mxgraph.bpmn.task;whiteSpace=wrap;rectStyle=rounded;size=10;html=1;container=1;expand=0;collapsible=0;taskMarker=manual;" vertex="1" parent="2n2AJG824ThZec9w-o2N-127">
          <mxGeometry x="190" y="230" width="120" height="80" as="geometry" />
        </mxCell>
        <mxCell id="2n2AJG824ThZec9w-o2N-128" value="Профильный участок" style="swimlane;html=1;startSize=20;fontStyle=0;collapsible=0;horizontal=1;swimlaneLine=1;strokeWidth=2;swimlaneFillColor=#ffffff;whiteSpace=wrap;" vertex="1" parent="2n2AJG824ThZec9w-o2N-127">
          <mxGeometry x="350" width="990" height="520" as="geometry" />
        </mxCell>
        <mxCell id="2n2AJG824ThZec9w-o2N-132" value="" style="edgeStyle=orthogonalEdgeStyle;rounded=0;orthogonalLoop=1;jettySize=auto;html=1;exitX=1;exitY=0.5;exitDx=0;exitDy=0;exitPerimeter=0;entryX=0;entryY=0.5;entryDx=0;entryDy=0;entryPerimeter=0;" edge="1" parent="2n2AJG824ThZec9w-o2N-128" target="2n2AJG824ThZec9w-o2N-133">
          <mxGeometry relative="1" as="geometry">
            <mxPoint x="80" y="330" as="targetPoint" />
            <mxPoint x="70" y="270" as="sourcePoint" />
          </mxGeometry>
        </mxCell>
        <mxCell id="2n2AJG824ThZec9w-o2N-138" value="" style="edgeStyle=orthogonalEdgeStyle;rounded=0;orthogonalLoop=1;jettySize=auto;html=1;entryX=0;entryY=0.5;entryDx=0;entryDy=0;entryPerimeter=0;exitX=1;exitY=0.5;exitDx=0;exitDy=0;exitPerimeter=0;" edge="1" parent="2n2AJG824ThZec9w-o2N-128" source="2n2AJG824ThZec9w-o2N-134" target="2n2AJG824ThZec9w-o2N-137">
          <mxGeometry relative="1" as="geometry" />
        </mxCell>
        <mxCell id="2n2AJG824ThZec9w-o2N-137" value="" style="points=[[0.25,0.25,0],[0.5,0,0],[0.75,0.25,0],[1,0.5,0],[0.75,0.75,0],[0.5,1,0],[0.25,0.75,0],[0,0.5,0]];shape=mxgraph.bpmn.gateway2;html=1;verticalLabelPosition=bottom;labelBackgroundColor=#ffffff;verticalAlign=top;align=center;perimeter=rhombusPerimeter;outlineConnect=0;outline=none;symbol=none;gwType=exclusive;" vertex="1" parent="2n2AJG824ThZec9w-o2N-128">
          <mxGeometry x="200" y="245" width="50" height="50" as="geometry" />
        </mxCell>
        <mxCell id="2n2AJG824ThZec9w-o2N-134" value="Выявление неверного вложения WWE" style="points=[[0.25,0,0],[0.5,0,0],[0.75,0,0],[1,0.25,0],[1,0.5,0],[1,0.75,0],[0.75,1,0],[0.5,1,0],[0.25,1,0],[0,0.75,0],[0,0.5,0],[0,0.25,0]];shape=mxgraph.bpmn.task;whiteSpace=wrap;rectStyle=rounded;size=10;html=1;container=1;expand=0;collapsible=0;taskMarker=manual;" vertex="1" parent="2n2AJG824ThZec9w-o2N-128">
          <mxGeometry x="40" y="230" width="120" height="80" as="geometry" />
        </mxCell>
        <mxCell id="2n2AJG824ThZec9w-o2N-146" value="" style="edgeStyle=orthogonalEdgeStyle;rounded=0;orthogonalLoop=1;jettySize=auto;html=1;exitX=0.5;exitY=0;exitDx=0;exitDy=0;exitPerimeter=0;entryX=0.5;entryY=1;entryDx=0;entryDy=0;entryPerimeter=0;" edge="1" parent="2n2AJG824ThZec9w-o2N-128" source="2n2AJG824ThZec9w-o2N-137" target="2n2AJG824ThZec9w-o2N-158">
          <mxGeometry relative="1" as="geometry">
            <mxPoint x="200" y="220" as="sourcePoint" />
            <mxPoint x="225" y="160" as="targetPoint" />
          </mxGeometry>
        </mxCell>
        <mxCell id="2n2AJG824ThZec9w-o2N-149" value="Обнаружено&amp;nbsp;&lt;div style=&quot;background-color: rgb(251, 251, 251);&quot;&gt;неверное вложение&lt;/div&gt;" style="edgeLabel;html=1;align=center;verticalAlign=middle;resizable=0;points=[];" vertex="1" connectable="0" parent="2n2AJG824ThZec9w-o2N-146">
          <mxGeometry x="-0.1405" y="-2" relative="1" as="geometry">
            <mxPoint as="offset" />
          </mxGeometry>
        </mxCell>
        <mxCell id="2n2AJG824ThZec9w-o2N-158" value="Определение подмены" style="points=[[0.25,0,0],[0.5,0,0],[0.75,0,0],[1,0.25,0],[1,0.5,0],[1,0.75,0],[0.75,1,0],[0.5,1,0],[0.25,1,0],[0,0.75,0],[0,0.5,0],[0,0.25,0]];shape=mxgraph.bpmn.task;whiteSpace=wrap;rectStyle=rounded;size=10;html=1;container=1;expand=0;collapsible=0;taskMarker=manual;" vertex="1" parent="2n2AJG824ThZec9w-o2N-128">
          <mxGeometry x="165" y="80" width="120" height="80" as="geometry" />
        </mxCell>
        <mxCell id="2n2AJG824ThZec9w-o2N-159" value="" style="points=[[0.25,0.25,0],[0.5,0,0],[0.75,0.25,0],[1,0.5,0],[0.75,0.75,0],[0.5,1,0],[0.25,0.75,0],[0,0.5,0]];shape=mxgraph.bpmn.gateway2;html=1;verticalLabelPosition=bottom;labelBackgroundColor=#ffffff;verticalAlign=top;align=center;perimeter=rhombusPerimeter;outlineConnect=0;outline=none;symbol=none;gwType=exclusive;" vertex="1" parent="2n2AJG824ThZec9w-o2N-128">
          <mxGeometry x="360" y="95" width="50" height="50" as="geometry" />
        </mxCell>
        <mxCell id="2n2AJG824ThZec9w-o2N-160" value="" style="edgeStyle=orthogonalEdgeStyle;rounded=0;orthogonalLoop=1;jettySize=auto;html=1;entryX=0;entryY=0.5;entryDx=0;entryDy=0;entryPerimeter=0;exitX=1;exitY=0.5;exitDx=0;exitDy=0;exitPerimeter=0;" edge="1" parent="2n2AJG824ThZec9w-o2N-128" source="2n2AJG824ThZec9w-o2N-158" target="2n2AJG824ThZec9w-o2N-159">
          <mxGeometry relative="1" as="geometry">
            <mxPoint x="285" y="120" as="sourcePoint" />
            <mxPoint x="330" y="110" as="targetPoint" />
          </mxGeometry>
        </mxCell>
        <mxCell id="2n2AJG824ThZec9w-o2N-161" value="" style="edgeStyle=orthogonalEdgeStyle;rounded=0;orthogonalLoop=1;jettySize=auto;html=1;exitX=1;exitY=0.5;exitDx=0;exitDy=0;exitPerimeter=0;entryX=0;entryY=0.5;entryDx=0;entryDy=0;entryPerimeter=0;" edge="1" parent="2n2AJG824ThZec9w-o2N-128" source="2n2AJG824ThZec9w-o2N-159" target="2n2AJG824ThZec9w-o2N-172">
          <mxGeometry relative="1" as="geometry">
            <mxPoint x="410" y="119.82999999999998" as="sourcePoint" />
            <mxPoint x="520" y="120" as="targetPoint" />
          </mxGeometry>
        </mxCell>
        <mxCell id="2n2AJG824ThZec9w-o2N-162" value="Подмена&lt;div&gt;не обнаружена&lt;/div&gt;" style="edgeLabel;html=1;align=center;verticalAlign=middle;resizable=0;points=[];" vertex="1" connectable="0" parent="2n2AJG824ThZec9w-o2N-161">
          <mxGeometry x="-0.1826" y="-1" relative="1" as="geometry">
            <mxPoint as="offset" />
          </mxGeometry>
        </mxCell>
        <mxCell id="2n2AJG824ThZec9w-o2N-163" value="" style="edgeStyle=orthogonalEdgeStyle;rounded=0;orthogonalLoop=1;jettySize=auto;html=1;exitX=0.5;exitY=1;exitDx=0;exitDy=0;exitPerimeter=0;entryX=0.5;entryY=0;entryDx=0;entryDy=0;entryPerimeter=0;" edge="1" parent="2n2AJG824ThZec9w-o2N-128" source="2n2AJG824ThZec9w-o2N-159" target="2n2AJG824ThZec9w-o2N-166">
          <mxGeometry relative="1" as="geometry">
            <mxPoint x="354.83" y="155" as="sourcePoint" />
            <mxPoint x="355" y="210" as="targetPoint" />
          </mxGeometry>
        </mxCell>
        <mxCell id="2n2AJG824ThZec9w-o2N-164" value="Подмена" style="edgeLabel;html=1;align=center;verticalAlign=middle;resizable=0;points=[];" vertex="1" connectable="0" parent="2n2AJG824ThZec9w-o2N-163">
          <mxGeometry x="-0.0474" y="1" relative="1" as="geometry">
            <mxPoint as="offset" />
          </mxGeometry>
        </mxCell>
        <mxCell id="2n2AJG824ThZec9w-o2N-166" value="Выбор типа подмены" style="points=[[0.25,0,0],[0.5,0,0],[0.75,0,0],[1,0.25,0],[1,0.5,0],[1,0.75,0],[0.75,1,0],[0.5,1,0],[0.25,1,0],[0,0.75,0],[0,0.5,0],[0,0.25,0]];shape=mxgraph.bpmn.task;whiteSpace=wrap;rectStyle=rounded;size=10;html=1;container=1;expand=0;collapsible=0;taskMarker=manual;" vertex="1" parent="2n2AJG824ThZec9w-o2N-128">
          <mxGeometry x="310" y="210" width="150" height="60" as="geometry" />
        </mxCell>
        <mxCell id="2n2AJG824ThZec9w-o2N-172" value="Смена характеристик товара" style="points=[[0.25,0,0],[0.5,0,0],[0.75,0,0],[1,0.25,0],[1,0.5,0],[1,0.75,0],[0.75,1,0],[0.5,1,0],[0.25,1,0],[0,0.75,0],[0,0.5,0],[0,0.25,0]];shape=mxgraph.bpmn.task;whiteSpace=wrap;rectStyle=rounded;size=10;html=1;container=1;expand=0;collapsible=0;taskMarker=manual;" vertex="1" parent="2n2AJG824ThZec9w-o2N-128">
          <mxGeometry x="550" y="80" width="120" height="80" as="geometry" />
        </mxCell>
        <mxCell id="2n2AJG824ThZec9w-o2N-263" value="Определение ответственных за списание (гадальный шар)" style="points=[[0.25,0,0],[0.5,0,0],[0.75,0,0],[1,0.25,0],[1,0.5,0],[1,0.75,0],[0.75,1,0],[0.5,1,0],[0.25,1,0],[0,0.75,0],[0,0.5,0],[0,0.25,0]];shape=mxgraph.bpmn.task;whiteSpace=wrap;rectStyle=rounded;size=10;html=1;container=1;expand=0;collapsible=0;taskMarker=service;" vertex="1" parent="2n2AJG824ThZec9w-o2N-128">
          <mxGeometry x="520" y="190" width="180" height="100" as="geometry" />
        </mxCell>
        <mxCell id="2n2AJG824ThZec9w-o2N-264" value="" style="points=[[0.25,0.25,0],[0.5,0,0],[0.75,0.25,0],[1,0.5,0],[0.75,0.75,0],[0.5,1,0],[0.25,0.75,0],[0,0.5,0]];shape=mxgraph.bpmn.gateway2;html=1;verticalLabelPosition=bottom;labelBackgroundColor=#ffffff;verticalAlign=top;align=center;perimeter=rhombusPerimeter;outlineConnect=0;outline=none;symbol=none;gwType=exclusive;" vertex="1" parent="2n2AJG824ThZec9w-o2N-128">
          <mxGeometry x="800" y="215" width="50" height="50" as="geometry" />
        </mxCell>
        <mxCell id="2n2AJG824ThZec9w-o2N-265" value="" style="edgeStyle=orthogonalEdgeStyle;rounded=0;orthogonalLoop=1;jettySize=auto;html=1;entryX=0;entryY=0.5;entryDx=0;entryDy=0;entryPerimeter=0;exitX=1;exitY=0.5;exitDx=0;exitDy=0;exitPerimeter=0;" edge="1" parent="2n2AJG824ThZec9w-o2N-128" source="2n2AJG824ThZec9w-o2N-263" target="2n2AJG824ThZec9w-o2N-264">
          <mxGeometry relative="1" as="geometry">
            <mxPoint x="1280" y="320" as="sourcePoint" />
            <mxPoint x="1320" y="320" as="targetPoint" />
          </mxGeometry>
        </mxCell>
        <mxCell id="2n2AJG824ThZec9w-o2N-266" value="" style="edgeStyle=orthogonalEdgeStyle;rounded=0;orthogonalLoop=1;jettySize=auto;html=1;exitX=0.5;exitY=1;exitDx=0;exitDy=0;exitPerimeter=0;entryX=0.5;entryY=0;entryDx=0;entryDy=0;entryPerimeter=0;" edge="1" parent="2n2AJG824ThZec9w-o2N-128" source="2n2AJG824ThZec9w-o2N-264" target="2n2AJG824ThZec9w-o2N-267">
          <mxGeometry relative="1" as="geometry">
            <mxPoint x="874.81" y="310" as="sourcePoint" />
            <mxPoint x="874.81" y="360" as="targetPoint" />
          </mxGeometry>
        </mxCell>
        <mxCell id="2n2AJG824ThZec9w-o2N-269" value="Ответственный&lt;div&gt;найден&lt;/div&gt;" style="edgeLabel;html=1;align=center;verticalAlign=middle;resizable=0;points=[];" vertex="1" connectable="0" parent="2n2AJG824ThZec9w-o2N-266">
          <mxGeometry x="-0.0133" y="-4" relative="1" as="geometry">
            <mxPoint x="4" y="-2" as="offset" />
          </mxGeometry>
        </mxCell>
        <mxCell id="2n2AJG824ThZec9w-o2N-267" value="списываем ШК с 29 лостризоном,&lt;div&gt;&amp;nbsp;создаем новый стикер обезлички&lt;/div&gt;" style="points=[[0.145,0.145,0],[0.5,0,0],[0.855,0.145,0],[1,0.5,0],[0.855,0.855,0],[0.5,1,0],[0.145,0.855,0],[0,0.5,0]];shape=mxgraph.bpmn.event;html=1;verticalLabelPosition=bottom;labelBackgroundColor=#ffffff;verticalAlign=top;align=center;perimeter=ellipsePerimeter;outlineConnect=0;aspect=fixed;outline=end;symbol=terminate2;fillColor=#f8cecc;strokeColor=#b85450;" vertex="1" parent="2n2AJG824ThZec9w-o2N-128">
          <mxGeometry x="800" y="340" width="50" height="50" as="geometry" />
        </mxCell>
        <mxCell id="2n2AJG824ThZec9w-o2N-276" value="" style="edgeStyle=elbowEdgeStyle;fontSize=12;html=1;endArrow=blockThin;endFill=1;rounded=0;exitX=1;exitY=0.5;exitDx=0;exitDy=0;exitPerimeter=0;entryX=0;entryY=0.5;entryDx=0;entryDy=0;entryPerimeter=0;" edge="1" parent="2n2AJG824ThZec9w-o2N-128" source="2n2AJG824ThZec9w-o2N-166" target="2n2AJG824ThZec9w-o2N-263">
          <mxGeometry width="160" relative="1" as="geometry">
            <mxPoint x="440" y="360" as="sourcePoint" />
            <mxPoint x="600" y="360" as="targetPoint" />
          </mxGeometry>
        </mxCell>
        <mxCell id="2n2AJG824ThZec9w-o2N-135" value="" style="edgeStyle=orthogonalEdgeStyle;rounded=0;orthogonalLoop=1;jettySize=auto;html=1;exitX=1;exitY=0.5;exitDx=0;exitDy=0;exitPerimeter=0;entryX=0;entryY=0.5;entryDx=0;entryDy=0;entryPerimeter=0;" edge="1" parent="2n2AJG824ThZec9w-o2N-127" source="2n2AJG824ThZec9w-o2N-66" target="2n2AJG824ThZec9w-o2N-134">
          <mxGeometry relative="1" as="geometry">
            <mxPoint x="290" y="340" as="sourcePoint" />
            <mxPoint x="330" y="340" as="targetPoint" />
          </mxGeometry>
        </mxCell>
        <mxCell id="2n2AJG824ThZec9w-o2N-259" value="Раскладка" style="swimlane;html=1;startSize=20;fontStyle=0;collapsible=0;horizontal=1;swimlaneLine=1;strokeWidth=2;swimlaneFillColor=#ffffff;whiteSpace=wrap;" vertex="1" parent="2n2AJG824ThZec9w-o2N-59">
          <mxGeometry x="1340" y="20" width="340" height="520" as="geometry" />
        </mxCell>
        <mxCell id="2n2AJG824ThZec9w-o2N-151" value="Раскладка" style="points=[[0.145,0.145,0],[0.5,0,0],[0.855,0.145,0],[1,0.5,0],[0.855,0.855,0],[0.5,1,0],[0.145,0.855,0],[0,0.5,0]];shape=mxgraph.bpmn.event;html=1;verticalLabelPosition=bottom;labelBackgroundColor=#ffffff;verticalAlign=top;align=center;perimeter=ellipsePerimeter;outlineConnect=0;aspect=fixed;outline=end;symbol=terminate2;fillColor=#f8cecc;strokeColor=#b85450;" vertex="1" parent="2n2AJG824ThZec9w-o2N-259">
          <mxGeometry x="270" y="250" width="50" height="50" as="geometry" />
        </mxCell>
        <mxCell id="2n2AJG824ThZec9w-o2N-260" value="" style="points=[[0.25,0.25,0],[0.5,0,0],[0.75,0.25,0],[1,0.5,0],[0.75,0.75,0],[0.5,1,0],[0.25,0.75,0],[0,0.5,0]];shape=mxgraph.bpmn.gateway2;html=1;verticalLabelPosition=bottom;labelBackgroundColor=#ffffff;verticalAlign=top;align=center;perimeter=rhombusPerimeter;outlineConnect=0;outline=none;symbol=none;gwType=exclusive;" vertex="1" parent="2n2AJG824ThZec9w-o2N-259">
          <mxGeometry x="180" y="250" width="50" height="50" as="geometry" />
        </mxCell>
        <mxCell id="2n2AJG824ThZec9w-o2N-261" value="" style="edgeStyle=orthogonalEdgeStyle;rounded=0;orthogonalLoop=1;jettySize=auto;html=1;entryX=0;entryY=0.5;entryDx=0;entryDy=0;entryPerimeter=0;exitX=1;exitY=0.5;exitDx=0;exitDy=0;exitPerimeter=0;" edge="1" parent="2n2AJG824ThZec9w-o2N-259" source="2n2AJG824ThZec9w-o2N-260" target="2n2AJG824ThZec9w-o2N-151">
          <mxGeometry relative="1" as="geometry">
            <mxPoint x="80" y="464.83000000000004" as="sourcePoint" />
            <mxPoint x="115" y="464.83000000000004" as="targetPoint" />
          </mxGeometry>
        </mxCell>
        <mxCell id="2n2AJG824ThZec9w-o2N-270" value="Ручной разбор&lt;div&gt;(команда Татьяны Вавиловой)&lt;/div&gt;" style="points=[[0.145,0.145,0],[0.5,0,0],[0.855,0.145,0],[1,0.5,0],[0.855,0.855,0],[0.5,1,0],[0.145,0.855,0],[0,0.5,0]];shape=mxgraph.bpmn.event;html=1;verticalLabelPosition=bottom;labelBackgroundColor=#ffffff;verticalAlign=top;align=center;perimeter=ellipsePerimeter;outlineConnect=0;aspect=fixed;outline=end;symbol=terminate2;fillColor=#f8cecc;strokeColor=#b85450;" vertex="1" parent="2n2AJG824ThZec9w-o2N-259">
          <mxGeometry x="70" y="215" width="50" height="50" as="geometry" />
        </mxCell>
        <mxCell id="2n2AJG824ThZec9w-o2N-174" value="" style="edgeStyle=orthogonalEdgeStyle;rounded=0;orthogonalLoop=1;jettySize=auto;html=1;entryX=0.5;entryY=0;entryDx=0;entryDy=0;entryPerimeter=0;exitX=1;exitY=0.5;exitDx=0;exitDy=0;exitPerimeter=0;" edge="1" parent="2n2AJG824ThZec9w-o2N-59" source="2n2AJG824ThZec9w-o2N-172" target="2n2AJG824ThZec9w-o2N-260">
          <mxGeometry relative="1" as="geometry">
            <mxPoint x="1040" y="200" as="sourcePoint" />
            <mxPoint x="1100" y="140" as="targetPoint" />
          </mxGeometry>
        </mxCell>
        <mxCell id="2n2AJG824ThZec9w-o2N-148" value="" style="edgeStyle=orthogonalEdgeStyle;rounded=0;orthogonalLoop=1;jettySize=auto;html=1;exitX=0.5;exitY=1;exitDx=0;exitDy=0;exitPerimeter=0;entryX=0.5;entryY=1;entryDx=0;entryDy=0;entryPerimeter=0;" edge="1" parent="2n2AJG824ThZec9w-o2N-59" source="2n2AJG824ThZec9w-o2N-137" target="2n2AJG824ThZec9w-o2N-260">
          <mxGeometry relative="1" as="geometry">
            <mxPoint x="675" y="275" as="sourcePoint" />
            <mxPoint x="1590" y="400" as="targetPoint" />
            <Array as="points">
              <mxPoint x="575" y="485" />
              <mxPoint x="1545" y="485" />
            </Array>
          </mxGeometry>
        </mxCell>
        <mxCell id="2n2AJG824ThZec9w-o2N-278" value="Вложение верно" style="edgeLabel;html=1;align=center;verticalAlign=middle;resizable=0;points=[];" vertex="1" connectable="0" parent="2n2AJG824ThZec9w-o2N-148">
          <mxGeometry x="-0.9445" y="4" relative="1" as="geometry">
            <mxPoint y="1" as="offset" />
          </mxGeometry>
        </mxCell>
        <mxCell id="2n2AJG824ThZec9w-o2N-271" value="" style="edgeStyle=orthogonalEdgeStyle;rounded=0;orthogonalLoop=1;jettySize=auto;html=1;entryX=0;entryY=0.5;entryDx=0;entryDy=0;entryPerimeter=0;exitX=1;exitY=0.5;exitDx=0;exitDy=0;exitPerimeter=0;" edge="1" parent="2n2AJG824ThZec9w-o2N-59" target="2n2AJG824ThZec9w-o2N-270" source="2n2AJG824ThZec9w-o2N-264">
          <mxGeometry relative="1" as="geometry">
            <mxPoint x="1270" y="290" as="sourcePoint" />
            <mxPoint x="1295" y="469.83000000000004" as="targetPoint" />
          </mxGeometry>
        </mxCell>
        <mxCell id="2n2AJG824ThZec9w-o2N-274" value="Ответственный&lt;div&gt;не найден&lt;/div&gt;" style="edgeLabel;html=1;align=center;verticalAlign=middle;resizable=0;points=[];" vertex="1" connectable="0" parent="2n2AJG824ThZec9w-o2N-271">
          <mxGeometry x="-0.2483" y="-2" relative="1" as="geometry">
            <mxPoint x="-9" y="3" as="offset" />
          </mxGeometry>
        </mxCell>
      </root>
    </mxGraphModel>
  </diagram>
</mxfile>
